# .PCD v0.7 - Point Cloud Data file format
VERSION 0.7
FIELDS x y z
SIZE 4 4 4
TYPE F F F
COUNT 1 1 1
WIDTH 80
HEIGHT 1
VIEWPOINT 0 0 0 1 0 0 0
POINTS 80
DATA ascii
1 0 0
2 0 0
2 1 0
1 1 0
1 0 1
2 0 1
2 1 1
1 1 1
2 0 0
3 0 0
3 1 0
2 1 0
2 0 1
3 0 1
3 1 1
2 1 1
3 0 0
4 0 0
4 1 0
3 1 0
3 0 1
4 0 1
4 1 1
3 1 1
4 0 0
5 0 0
5 1 0
4 1 0
4 0 1
5 0 1
5 1 1
4 1 1
1.5 1 0
2.5 1 0
2.5 2 0
1.5 2 0
1.5 1 1
2.5 1 1
2.5 2 1
1.5 2 1
2.5 1 0
3.5 1 0
3.5 2 0
2.5 2 0
2.5 1 1
3.5 1 1
3.5 2 1
2.5 2 1
3.5 1 0
4.5 1 0
4.5 2 0
3.5 2 0
3.5 1 1
4.5 1 1
4.5 2 1
3.5 2 1
2 2 0
3 2 0
3 3 0
2 3 0
2 2 1
3 2 1
3 3 1
2 3 1
3 2 0
4 2 0
4 3 0
3 3 0
3 2 1
4 2 1
4 3 1
3 3 1
2.5 3 0
3.5 3 0
3.5 4 0
2.5 4 0
2.5 3 1
3.5 3 1
3.5 4 1
2.5 4 1
