# .PCD v0.7 - Point Cloud Data file format
VERSION 0.7
FIELDS x y z rgb
SIZE 4 4 4 4
TYPE F F F U
COUNT 1 1 1 1
WIDTH 48
HEIGHT 1
VIEWPOINT 0 0 0 1 0 0 0
POINTS 48
DATA ascii
1 0 0 4280866775
2 0 0 4280866775
2 1 0 4280866775
1 1 0 4280866775
1 0 1 4280866775
2 0 1 4280866775
2 1 1 4280866775
1 1 1 4280866775
2 0 0 4283477935
3 0 0 4283477935
3 1 0 4283477935
2 1 0 4283477935
2 0 1 4283477935
3 0 1 4283477935
3 1 1 4283477935
2 1 1 4283477935
3 0 0 4286089095
4 0 0 4286089095
4 1 0 4286089095
3 1 0 4286089095
3 0 1 4286089095
4 0 1 4286089095
4 1 1 4286089095
3 1 1 4286089095
1.5 1 0 4288700255
2.5 1 0 4288700255
2.5 2 0 4288700255
1.5 2 0 4288700255
1.5 1 1 4288700255
2.5 1 1 4288700255
2.5 2 1 4288700255
1.5 2 1 4288700255
2.5 1 0 4291311415
3.5 1 0 4291311415
3.5 2 0 4291311415
2.5 2 0 4291311415
2.5 1 1 4291311415
3.5 1 1 4291311415
3.5 2 1 4291311415
2.5 2 1 4291311415
2 2 0 4293922575
3 2 0 4293922575
3 3 0 4293922575
2 3 0 4293922575
2 2 1 4293922575
3 2 1 4293922575
3 3 1 4293922575
2 3 1 4293922575
